<svg width="128" height="32" viewBox="0 0 128 32" fill="none" xmlns="http://www.w3.org/2000/svg">
<path d="M32 32H0V0H32V32ZM1.50879 13.4336H5.37402V17.54H1.50879V30.4912H11.791V24.8291H5.8877V17.9502H12.7656V23.7002H17.7969V17.7969H23.2891V11.7393H30.4912V1.50879H1.50879V13.4336ZM18.6689 30.4912H23.2383V24.6748H18.6689V30.4912ZM23.2891 24.6748H30.4912V17.9502H23.2891V24.6748ZM17.54 17.6426H13.4336V13.5361H17.54V17.6426ZM11.2256 11.7393H7.11914V7.63281H11.2256V11.7393ZM23.2891 11.6885H19.1826V7.58105H23.2891V11.6885ZM17.2832 1.62695V5.7334H13.1768V1.62695H17.2832Z" fill="#FACA20"/>
<path d="M68.7192 10.7148C70.0508 10.7148 71.2804 11.0259 72.356 11.5957C73.4316 12.1656 74.3028 12.995 74.9175 14.083C75.5321 15.171 75.8393 16.4146 75.8394 17.8135C75.8394 19.2123 75.5321 20.4559 74.9175 21.5439C74.3028 22.632 73.4316 23.4613 72.356 24.0312C71.2804 24.6011 70.0509 24.9121 68.7192 24.9121C67.3364 24.9121 66.1073 24.6529 65.0317 24.083C63.9561 23.5131 63.1366 22.6838 62.522 21.5957C61.9074 20.5077 61.6001 19.2642 61.6001 17.8135C61.6001 16.4146 61.9073 15.171 62.522 14.083C63.1366 12.9951 64.007 12.1656 65.0825 11.5957C66.1581 11.0258 67.3876 10.7149 68.7192 10.7148ZM83.2153 10.6631C84.9057 10.6631 86.289 11.0782 87.2622 11.959C88.2353 12.8398 88.799 13.98 88.9526 15.3789H85.1108C85.0596 14.9127 84.855 14.4974 84.4966 14.2383C84.138 13.9792 83.6762 13.8242 83.1128 13.8242C82.6007 13.8243 82.2419 13.9276 81.9858 14.083C81.7298 14.2902 81.5767 14.5495 81.5767 14.8604C81.5767 15.2748 81.7812 15.534 82.1909 15.7412C82.6007 15.9484 83.2666 16.1561 84.1372 16.3115C85.1615 16.5706 85.9815 16.8289 86.5962 17.0879C87.2109 17.347 87.7744 17.7621 88.2866 18.332C88.7475 18.9019 89.0039 19.6789 89.0552 20.6113C89.0552 21.4403 88.8502 22.1663 88.3892 22.7881C87.9282 23.4097 87.3134 23.9274 86.4429 24.29C85.6233 24.6527 84.6498 24.8603 83.5229 24.8604C82.3961 24.9122 81.32 24.7045 80.3979 24.29C79.4762 23.8755 78.7592 23.3053 78.1958 22.5801C77.6325 21.8548 77.3764 21.0779 77.2739 20.1455H81.4224C81.4736 20.6117 81.6788 21.0261 82.0884 21.2852C82.4982 21.596 82.9595 21.752 83.5229 21.752C84.0352 21.7519 84.4451 21.6477 84.7524 21.4404C85.0596 21.2332 85.1616 20.9739 85.1616 20.6113C85.1615 20.197 84.957 19.9377 84.5474 19.7305C84.1376 19.5232 83.4712 19.3166 82.5493 19.1094C81.5764 18.9022 80.7571 18.6428 80.0913 18.3838C79.4256 18.1248 78.8618 17.7104 78.4009 17.1924C77.9399 16.6224 77.6831 15.8965 77.6831 14.9639C77.6831 14.1868 77.8883 13.4615 78.3491 12.7881C78.7589 12.1145 79.4251 11.5961 80.2446 11.2334C81.0641 10.8707 82.0885 10.6631 83.2153 10.6631ZM96.8403 10.7148C97.8136 10.7148 98.634 10.9225 99.3511 11.2852C100.068 11.6996 100.632 12.2182 101.042 12.8398V10.8711H105.242V24.6533H101.042V22.6846C100.632 23.3062 100.068 23.8238 99.3511 24.2383C98.634 24.6528 97.7623 24.8086 96.8403 24.8086C95.7137 24.8085 94.7407 24.4975 93.8188 23.9277C92.8968 23.3578 92.1797 22.5285 91.6675 21.4404C91.1553 20.3524 90.8481 19.1089 90.8481 17.71C90.8482 16.3629 91.1035 15.1192 91.6157 14.083C92.1279 12.995 92.8451 12.1656 93.7671 11.5957C94.689 11.0258 95.7136 10.7149 96.8403 10.7148ZM121.427 10.7148C123.118 10.7148 124.552 11.1817 125.73 12.0625C126.857 12.9951 127.625 14.2385 127.984 15.8965H123.528C123.169 14.8603 122.452 14.2901 121.376 14.29C120.608 14.29 119.994 14.6012 119.533 15.1709C119.072 15.7926 118.867 16.6219 118.867 17.7617C118.867 18.9016 119.072 19.7308 119.533 20.3525C119.994 20.9742 120.608 21.2334 121.376 21.2334C122.452 21.2333 123.169 20.715 123.528 19.627H127.984C127.625 21.2331 126.857 22.5284 125.73 23.4092C124.552 24.3418 123.169 24.8086 121.427 24.8086C120.096 24.8086 118.917 24.4976 117.893 23.9277C116.869 23.3578 116.049 22.5285 115.486 21.4404C114.922 20.3524 114.615 19.1089 114.615 17.6582C114.615 16.2075 114.922 15.1193 115.486 14.083C116.049 12.995 116.869 12.1656 117.893 11.5957C118.917 11.0258 120.096 10.7149 121.427 10.7148ZM49.7163 19.3682L54.48 7.34766H59.4487V24.7051H55.2485V14.29L51.4067 24.7051H48.0259L44.1841 14.29V24.7051H39.9839V7.34766H44.9009L49.7163 19.3682ZM112.413 24.7051H108.212V10.9229H112.413V24.7051ZM68.7192 14.3936C67.8999 14.3937 67.2338 14.7046 66.6704 15.2744C66.107 15.8443 65.8511 16.7255 65.8511 17.8135C65.8511 18.9014 66.1071 19.7826 66.6704 20.3525C67.1826 20.9225 67.8489 21.2334 68.6685 21.2334C69.4368 21.2852 70.1539 20.9743 70.7173 20.3525C71.2807 19.7826 71.5366 18.9016 71.5366 17.8135C71.5366 16.7255 71.2807 15.8443 70.7173 15.2744C70.1539 14.7046 69.4875 14.3936 68.7192 14.3936ZM98.0698 14.3936C97.2505 14.3936 96.5335 14.7047 95.9702 15.2744C95.4068 15.8961 95.0992 16.7255 95.0991 17.7617C95.0991 18.798 95.4068 19.6791 95.9702 20.249C96.5336 20.8706 97.2505 21.1816 98.0698 21.1816C98.8894 21.1816 99.607 20.8708 100.17 20.249C100.734 19.6273 101.042 18.798 101.042 17.7617C101.041 16.7773 100.734 15.9479 100.17 15.3262C99.607 14.7045 98.8893 14.3936 98.0698 14.3936ZM110.364 4.91211C111.081 4.91211 111.696 5.11962 112.157 5.58594C112.618 6.00044 112.875 6.57058 112.875 7.24414C112.874 7.86571 112.618 8.4352 112.157 8.84961C111.696 9.26412 111.081 9.52344 110.364 9.52344C109.647 9.47162 109.032 9.26411 108.571 8.84961C108.11 8.4352 107.853 7.86569 107.853 7.24414C107.853 6.5706 108.11 6.05224 108.571 5.58594C109.032 5.17144 109.647 4.91212 110.364 4.91211Z" fill="white"/>
</svg>
